<svg width="24" height="24" viewBox="0 0 24 24" fill="none" xmlns="http://www.w3.org/2000/svg">
<path d="M12 2C12.27 2 12.52 2.05039 12.75 2.15039L20.75 5.36035C21.1299 5.50036 21.4402 5.75011 21.6602 6.08008C21.8901 6.41005 22 6.78025 22 7.2002V19C22 19.036 21.9978 19.0715 21.9941 19.1064C21.9387 20.1615 21.0688 21 20 21H3C2.71667 21 2.47878 20.9046 2.28711 20.7129C2.09544 20.5212 2 20.2833 2 20C2 19.7167 2.09544 19.4788 2.28711 19.2871C2.47878 19.0954 2.71667 19 3 19H8V14C8 13.7167 8.09544 13.4788 8.28711 13.2871C8.47878 13.0954 8.71667 13 9 13H14V8C14 7.71667 14.0954 7.47878 14.2871 7.28711C14.4788 7.09544 14.7167 7 15 7H19.5L12 4L4 7.2002V16C4 16.5523 3.55228 17 3 17C2.44772 17 2 16.5523 2 16V7.19043C2 6.78055 2.10998 6.40025 2.33984 6.07031C2.55984 5.74031 2.87 5.49961 3.25 5.34961L11.25 2.15039C11.48 2.05039 11.73 2 12 2Z" fill="#141414"/>
</svg>
