<svg width="24" height="24" viewBox="0 0 24 24" fill="none" xmlns="http://www.w3.org/2000/svg">
<path fill-rule="evenodd" clip-rule="evenodd" d="M10.5168 6.01807C11.0591 5.99123 11.5716 5.86238 12.0495 5.68438C12.5646 5.49252 13.0501 5.24033 13.4842 5.00607C13.5777 4.95561 13.6682 4.90635 13.7564 4.85835C14.0956 4.6737 14.4012 4.50736 14.7118 4.36315C15.479 4.00687 16.0442 3.90071 16.609 4.10039C17.2183 4.31581 18.0647 4.97042 19.1457 6.74536C19.4329 7.21706 20.0482 7.36657 20.5199 7.07931C20.9916 6.79205 21.1411 6.17679 20.8538 5.70509C19.6847 3.78534 18.5311 2.6586 17.2756 2.21476C15.9756 1.75517 14.8112 2.11183 13.8694 2.5492C13.495 2.72306 13.1184 2.92827 12.7736 3.11607C12.6921 3.16049 12.6119 3.20416 12.5344 3.24599C12.1099 3.47506 11.7277 3.67002 11.3514 3.81019C10.6369 4.07633 10.0012 4.12771 9.27647 3.76358C9.17305 3.71162 9.0649 3.67929 8.95628 3.66519C8.3442 3.29006 7.58505 3.17256 6.84347 3.41514C5.44575 3.87234 4.73221 5.3924 5.13581 6.7672L7.03362 13.2318L5.87115 12.9923C4.65794 12.7423 3.51117 13.4775 3.13125 14.6142C2.76179 15.7196 3.18854 16.977 4.21472 17.5788L8.42069 20.0451L9.54879 21.59C9.80418 21.9398 10.2557 22.0854 10.6673 21.9507L17.3538 19.7635C19.4878 19.0655 20.6113 16.7193 19.9801 14.5691L19.0738 11.482C18.6694 10.1045 17.3799 9.15176 15.9283 9.29053L12.1443 9.65227L10.5168 6.01807Z" fill="#242424"/>
</svg>
