<svg width="24" height="24" viewBox="0 0 24 24" fill="none" xmlns="http://www.w3.org/2000/svg">
<path d="M5.99999 19.9999C5.44999 19.9999 4.97916 19.8041 4.58749 19.4124C4.19583 19.0207 3.99999 18.5499 3.99999 17.9999V10.6249L2.99999 11.3999C2.76666 11.5666 2.51666 11.6332 2.24999 11.5999C1.98333 11.5666 1.76666 11.4332 1.59999 11.1999C1.43333 10.9666 1.37083 10.7166 1.41249 10.4499C1.45416 10.1832 1.58333 9.96657 1.79999 9.7999L10.775 2.9249C10.9583 2.79157 11.1542 2.69157 11.3625 2.6249C11.5708 2.55824 11.7833 2.5249 12 2.5249C12.2167 2.5249 12.4292 2.55824 12.6375 2.6249C12.8458 2.69157 13.0417 2.79157 13.225 2.9249L22.225 9.7999C22.4417 9.96657 22.5667 10.1874 22.6 10.4624C22.6333 10.7374 22.5667 10.9832 22.4 11.1999C22.2333 11.4166 22.0167 11.5416 21.75 11.5749C21.4833 11.6082 21.2417 11.5416 21.025 11.3749L20 10.6249V11.2749C19.6833 11.1749 19.3583 11.1041 19.025 11.0624C18.6917 11.0207 18.35 10.9999 18 10.9999C16.05 10.9999 14.3958 11.6791 13.0375 13.0374C11.6792 14.3957 11 16.0499 11 17.9999C11 18.1499 11.0042 18.2999 11.0125 18.4499C11.0208 18.5999 11.0333 18.7416 11.05 18.8749C11.0833 19.1749 11.0125 19.4374 10.8375 19.6624C10.6625 19.8874 10.4333 19.9999 10.15 19.9999H5.99999Z" fill="#242424"/>
<path d="M15.175 19.0374H18.35L17.475 19.9374C17.2917 20.1207 17.2 20.3541 17.2 20.6374C17.2 20.9207 17.2917 21.1541 17.475 21.3374C17.675 21.5374 17.9125 21.6332 18.1875 21.6249C18.4625 21.6166 18.6917 21.5207 18.875 21.3374L21.475 18.7374C21.5583 18.6541 21.625 18.5499 21.675 18.4249C21.725 18.2999 21.75 18.1707 21.75 18.0374C21.75 17.9041 21.725 17.7749 21.675 17.6499C21.625 17.5249 21.5583 17.4207 21.475 17.3374L18.875 14.7374C18.6917 14.5541 18.4583 14.4624 18.175 14.4624C17.8917 14.4624 17.6583 14.5541 17.475 14.7374C17.275 14.9374 17.175 15.1749 17.175 15.4499C17.175 15.7249 17.2667 15.9541 17.45 16.1374L18.35 17.0374H15.175C14.8917 17.0374 14.6542 17.1332 14.4625 17.3249C14.2708 17.5166 14.175 17.7541 14.175 18.0374C14.175 18.3207 14.2708 18.5582 14.4625 18.7499C14.6542 18.9416 14.8917 19.0374 15.175 19.0374Z" fill="#242424"/>
</svg>
