<svg width="24" height="24" viewBox="0 0 24 24" fill="none" xmlns="http://www.w3.org/2000/svg">
<path fill-rule="evenodd" clip-rule="evenodd" d="M16.6177 18.0319C15.078 19.2635 13.125 20 11 20C6.02944 20 2 15.9706 2 11C2 6.02944 6.02944 2 11 2C15.9706 2 20 6.02944 20 11C20 13.125 19.2635 15.078 18.0319 16.6177L21.707 20.2928C22.0975 20.6833 22.0975 21.3165 21.707 21.707C21.3165 22.0975 20.6833 22.0975 20.2928 21.707L16.6177 18.0319ZM13.7001 8.16084C13.9556 8.26702 14.1876 8.42266 14.3831 8.61885C14.5787 8.81495 14.7338 9.04779 14.8397 9.30405C14.9455 9.56032 15 9.835 15 10.1124C15 10.3898 14.9455 10.6645 14.8397 10.9207C14.7338 11.177 14.5787 11.4098 14.3831 11.6059L10.9999 15L7.61667 11.6059C7.22182 11.2098 7 10.6726 7 10.1124C7 9.55221 7.22182 9.01496 7.61667 8.61885C8.01152 8.22274 8.54704 8.00021 9.10544 8.00021C9.66384 8.00021 10.1994 8.22274 10.5942 8.61885L10.9999 9.02583L11.4056 8.61885C11.6011 8.42266 11.8331 8.26702 12.0886 8.16084C12.344 8.05465 12.6178 8 12.8944 8C13.1709 8 13.4447 8.05465 13.7001 8.16084Z" fill="#242424"/>
</svg>
